<?xml version="1.0" encoding="UTF-8" standalone="no"?>
<!DOCTYPE svg PUBLIC "-//W3C//DTD SVG 1.1//EN"
 "http://www.w3.org/Graphics/SVG/1.1/DTD/svg11.dtd">
<!-- Generated by graphviz version 3.0.0 (20220413.0242)
 -->
<!-- Title: inheritance153dc7632d Pages: 1 -->
<svg width="423pt" height="27pt"
 viewBox="0.00 0.00 423.00 27.00" xmlns="http://www.w3.org/2000/svg" xmlns:xlink="http://www.w3.org/1999/xlink">
<g id="graph0" class="graph" transform="scale(1 1) rotate(0) translate(4 23)">
<title>inheritance153dc7632d</title>
<!-- CallByRefBoolParam -->
<g id="node1" class="node">
<title>CallByRefBoolParam</title>
<g id="a_node1"><a xlink:href="../pyTooling/pyTooling.CallByRef.html#pyTooling.CallByRef.CallByRefBoolParam" xlink:title="A special *call&#45;by&#45;reference* implementation for boolean reference types." target="_top">
<polygon fill="white" stroke="#1e90ff" points="415,-19 263,-19 263,0 415,0 415,-19"/>
<text text-anchor="middle" x="339" y="-7" font-family="Vera Sans, DejaVu Sans, Liberation Sans, Arial, Helvetica, sans" font-size="10.00">CallByRefBoolParam</text>
</a>
</g>
</g>
<!-- CallByRefParam -->
<g id="node2" class="node">
<title>CallByRefParam</title>
<g id="a_node2"><a xlink:href="../pyTooling/pyTooling.CallByRef.html#pyTooling.CallByRef.CallByRefParam" xlink:title="Implements a *call&#45;by&#45;reference* parameter." target="_top">
<polygon fill="white" stroke="#1e90ff" points="227,-19 105,-19 105,0 227,0 227,-19"/>
<text text-anchor="middle" x="166" y="-7" font-family="Vera Sans, DejaVu Sans, Liberation Sans, Arial, Helvetica, sans" font-size="10.00">CallByRefParam</text>
</a>
</g>
</g>
<!-- CallByRefParam&#45;&gt;CallByRefBoolParam -->
<g id="edge1" class="edge">
<title>CallByRefParam&#45;&gt;CallByRefBoolParam</title>
<path fill="none" stroke="black" stroke-width="0.5" d="M227.29,-9.5C237.2,-9.5 247.62,-9.5 257.92,-9.5"/>
<polygon fill="black" stroke="black" stroke-width="0.5" points="257.97,-11.25 262.97,-9.5 257.97,-7.75 257.97,-11.25"/>
</g>
<!-- Generic -->
<g id="node3" class="node">
<title>Generic</title>
<g id="a_node3"><a xlink:title="Abstract base class for generic types.">
<polygon fill="white" stroke="#1e90ff" points="69,-19 0,-19 0,0 69,0 69,-19"/>
<text text-anchor="middle" x="34.5" y="-7" font-family="Vera Sans, DejaVu Sans, Liberation Sans, Arial, Helvetica, sans" font-size="10.00">Generic</text>
</a>
</g>
</g>
<!-- Generic&#45;&gt;CallByRefParam -->
<g id="edge2" class="edge">
<title>Generic&#45;&gt;CallByRefParam</title>
<path fill="none" stroke="black" stroke-width="0.5" d="M69.19,-9.5C78.59,-9.5 89.14,-9.5 99.71,-9.5"/>
<polygon fill="black" stroke="black" stroke-width="0.5" points="99.89,-11.25 104.89,-9.5 99.89,-7.75 99.89,-11.25"/>
</g>
</g>
</svg>
