<?xml version="1.0" encoding="UTF-8" standalone="no"?>
<!DOCTYPE svg PUBLIC "-//W3C//DTD SVG 1.1//EN"
 "http://www.w3.org/Graphics/SVG/1.1/DTD/svg11.dtd">
<!-- Generated by graphviz version 3.0.0 (20220413.0242)
 -->
<!-- Title: inheritancedf26f63d5c Pages: 1 -->
<svg width="272pt" height="27pt"
 viewBox="0.00 0.00 272.00 27.00" xmlns="http://www.w3.org/2000/svg" xmlns:xlink="http://www.w3.org/1999/xlink">
<g id="graph0" class="graph" transform="scale(1 1) rotate(0) translate(4 23)">
<title>inheritancedf26f63d5c</title>
<!-- Base -->
<g id="node1" class="node">
<title>Base</title>
<g id="a_node1"><a xlink:href="../pyTooling.GenericPath.html#pyTooling.GenericPath.Base" xlink:title="Base&#45;class for all pyTooling.GenericPath path elements." target="_top">
<polygon fill="white" stroke="#1e90ff" points="54,-19 0,-19 0,0 54,0 54,-19"/>
<text text-anchor="middle" x="27" y="-7" font-family="Vera Sans, DejaVu Sans, Liberation Sans, Arial, Helvetica, sans" font-size="10.00">Base</text>
</a>
</g>
</g>
<!-- RootMixIn -->
<g id="node3" class="node">
<title>RootMixIn</title>
<g id="a_node3"><a xlink:href="../pyTooling.GenericPath.html#pyTooling.GenericPath.RootMixIn" xlink:title="Mixin&#45;class for root elements in a path system." target="_top">
<polygon fill="white" stroke="#1e90ff" points="174,-19 90,-19 90,0 174,0 174,-19"/>
<text text-anchor="middle" x="132" y="-7" font-family="Vera Sans, DejaVu Sans, Liberation Sans, Arial, Helvetica, sans" font-size="10.00">RootMixIn</text>
</a>
</g>
</g>
<!-- Base&#45;&gt;RootMixIn -->
<g id="edge2" class="edge">
<title>Base&#45;&gt;RootMixIn</title>
<path fill="none" stroke="black" stroke-width="0.5" d="M54.26,-9.5C63.58,-9.5 74.37,-9.5 84.86,-9.5"/>
<polygon fill="black" stroke="black" stroke-width="0.5" points="84.97,-11.25 89.97,-9.5 84.97,-7.75 84.97,-11.25"/>
</g>
<!-- Host -->
<g id="node2" class="node">
<title>Host</title>
<g id="a_node2"><a xlink:href="../pyTooling/pyTooling.GenericPath.URL.html#pyTooling.GenericPath.URL.Host" xlink:title="Represents a hostname (including the port number) in a URL." target="_top">
<polygon fill="white" stroke="#1e90ff" points="264,-19 210,-19 210,0 264,0 264,-19"/>
<text text-anchor="middle" x="237" y="-7" font-family="Vera Sans, DejaVu Sans, Liberation Sans, Arial, Helvetica, sans" font-size="10.00">Host</text>
</a>
</g>
</g>
<!-- RootMixIn&#45;&gt;Host -->
<g id="edge1" class="edge">
<title>RootMixIn&#45;&gt;Host</title>
<path fill="none" stroke="black" stroke-width="0.5" d="M174,-9.5C184.23,-9.5 195.03,-9.5 204.7,-9.5"/>
<polygon fill="black" stroke="black" stroke-width="0.5" points="204.95,-11.25 209.95,-9.5 204.95,-7.75 204.95,-11.25"/>
</g>
</g>
</svg>
