<?xml version="1.0" encoding="UTF-8" standalone="no"?>
<!DOCTYPE svg PUBLIC "-//W3C//DTD SVG 1.1//EN"
 "http://www.w3.org/Graphics/SVG/1.1/DTD/svg11.dtd">
<!-- Generated by graphviz version 3.0.0 (20220413.0242)
 -->
<!-- Title: inheritanceafc5ba2fd2 Pages: 1 -->
<svg width="423pt" height="64pt"
 viewBox="0.00 0.00 423.00 64.00" xmlns="http://www.w3.org/2000/svg" xmlns:xlink="http://www.w3.org/1999/xlink">
<g id="graph0" class="graph" transform="scale(1 1) rotate(0) translate(4 60)">
<title>inheritanceafc5ba2fd2</title>
<!-- CallByRefBoolParam -->
<g id="node1" class="node">
<title>CallByRefBoolParam</title>
<g id="a_node1"><a xlink:href="../../pyTooling/pyTooling.CallByRef.html#pyTooling.CallByRef.CallByRefBoolParam" xlink:title="A special *call&#45;by&#45;reference* implementation for boolean reference types." target="_top">
<polygon fill="white" stroke="#1e90ff" points="415,-56 263,-56 263,-37 415,-37 415,-56"/>
<text text-anchor="middle" x="339" y="-44" font-family="Vera Sans, DejaVu Sans, Liberation Sans, Arial, Helvetica, sans" font-size="10.00">CallByRefBoolParam</text>
</a>
</g>
</g>
<!-- CallByRefParam -->
<g id="node2" class="node">
<title>CallByRefParam</title>
<g id="a_node2"><a xlink:href="../../pyTooling/pyTooling.CallByRef.html#pyTooling.CallByRef.CallByRefParam" xlink:title="Implements a *call&#45;by&#45;reference* parameter." target="_top">
<polygon fill="white" stroke="#1e90ff" points="227,-37 105,-37 105,-18 227,-18 227,-37"/>
<text text-anchor="middle" x="166" y="-25" font-family="Vera Sans, DejaVu Sans, Liberation Sans, Arial, Helvetica, sans" font-size="10.00">CallByRefParam</text>
</a>
</g>
</g>
<!-- CallByRefParam&#45;&gt;CallByRefBoolParam -->
<g id="edge1" class="edge">
<title>CallByRefParam&#45;&gt;CallByRefBoolParam</title>
<path fill="none" stroke="black" stroke-width="0.5" d="M227.29,-34.2C237.2,-35.3 247.62,-36.46 257.92,-37.6"/>
<polygon fill="black" stroke="black" stroke-width="0.5" points="257.81,-39.35 262.97,-38.16 258.2,-35.87 257.81,-39.35"/>
</g>
<!-- CallByRefIntParam -->
<g id="node3" class="node">
<title>CallByRefIntParam</title>
<g id="a_node3"><a xlink:href="../../pyTooling/pyTooling.CallByRef.html#pyTooling.CallByRef.CallByRefIntParam" xlink:title="A special *call&#45;by&#45;reference* implementation for integer reference types." target="_top">
<polygon fill="white" stroke="#1e90ff" points="411,-19 267,-19 267,0 411,0 411,-19"/>
<text text-anchor="middle" x="339" y="-7" font-family="Vera Sans, DejaVu Sans, Liberation Sans, Arial, Helvetica, sans" font-size="10.00">CallByRefIntParam</text>
</a>
</g>
</g>
<!-- CallByRefParam&#45;&gt;CallByRefIntParam -->
<g id="edge2" class="edge">
<title>CallByRefParam&#45;&gt;CallByRefIntParam</title>
<path fill="none" stroke="black" stroke-width="0.5" d="M227.29,-21.15C238.38,-19.99 250.09,-18.75 261.58,-17.54"/>
<polygon fill="black" stroke="black" stroke-width="0.5" points="262.05,-19.25 266.84,-16.99 261.69,-15.77 262.05,-19.25"/>
</g>
<!-- Generic -->
<g id="node4" class="node">
<title>Generic</title>
<g id="a_node4"><a xlink:title="Abstract base class for generic types.">
<polygon fill="white" stroke="#1e90ff" points="69,-37 0,-37 0,-18 69,-18 69,-37"/>
<text text-anchor="middle" x="34.5" y="-25" font-family="Vera Sans, DejaVu Sans, Liberation Sans, Arial, Helvetica, sans" font-size="10.00">Generic</text>
</a>
</g>
</g>
<!-- Generic&#45;&gt;CallByRefParam -->
<g id="edge3" class="edge">
<title>Generic&#45;&gt;CallByRefParam</title>
<path fill="none" stroke="black" stroke-width="0.5" d="M69.19,-27.5C78.59,-27.5 89.14,-27.5 99.71,-27.5"/>
<polygon fill="black" stroke="black" stroke-width="0.5" points="99.89,-29.25 104.89,-27.5 99.89,-25.75 99.89,-29.25"/>
</g>
</g>
</svg>
