<?xml version="1.0" encoding="UTF-8" standalone="no"?>
<!DOCTYPE svg PUBLIC "-//W3C//DTD SVG 1.1//EN"
 "http://www.w3.org/Graphics/SVG/1.1/DTD/svg11.dtd">
<!-- Generated by graphviz version 3.0.0 (20220413.0242)
 -->
<!-- Title: inheritance62145654de Pages: 1 -->
<svg width="310pt" height="27pt"
 viewBox="0.00 0.00 310.00 27.00" xmlns="http://www.w3.org/2000/svg" xmlns:xlink="http://www.w3.org/1999/xlink">
<g id="graph0" class="graph" transform="scale(1 1) rotate(0) translate(4 23)">
<title>inheritance62145654de</title>
<!-- Base -->
<g id="node1" class="node">
<title>Base</title>
<g id="a_node1"><a xlink:href="../pyTooling.GenericPath.html#pyTooling.GenericPath.Base" xlink:title="Base&#45;class for all pyTooling.GenericPath path elements." target="_top">
<polygon fill="white" stroke="#1e90ff" points="54,-19 0,-19 0,0 54,0 54,-19"/>
<text text-anchor="middle" x="27" y="-7" font-family="Vera Sans, DejaVu Sans, Liberation Sans, Arial, Helvetica, sans" font-size="10.00">Base</text>
</a>
</g>
</g>
<!-- ElementMixIn -->
<g id="node3" class="node">
<title>ElementMixIn</title>
<g id="a_node3"><a xlink:href="../pyTooling.GenericPath.html#pyTooling.GenericPath.ElementMixIn" xlink:title="Mixin&#45;class for elements in a path system." target="_top">
<polygon fill="white" stroke="#1e90ff" points="197,-19 90,-19 90,0 197,0 197,-19"/>
<text text-anchor="middle" x="143.5" y="-7" font-family="Vera Sans, DejaVu Sans, Liberation Sans, Arial, Helvetica, sans" font-size="10.00">ElementMixIn</text>
</a>
</g>
</g>
<!-- Base&#45;&gt;ElementMixIn -->
<g id="edge2" class="edge">
<title>Base&#45;&gt;ElementMixIn</title>
<path fill="none" stroke="black" stroke-width="0.5" d="M54.27,-9.5C63.35,-9.5 73.91,-9.5 84.51,-9.5"/>
<polygon fill="black" stroke="black" stroke-width="0.5" points="84.71,-11.25 89.71,-9.5 84.71,-7.75 84.71,-11.25"/>
</g>
<!-- Element -->
<g id="node2" class="node">
<title>Element</title>
<g id="a_node2"><a xlink:href="../pyTooling/pyTooling.GenericPath.URL.html#pyTooling.GenericPath.URL.Element" xlink:title="Derived class for the URL context." target="_top">
<polygon fill="white" stroke="#1e90ff" points="302,-19 233,-19 233,0 302,0 302,-19"/>
<text text-anchor="middle" x="267.5" y="-7" font-family="Vera Sans, DejaVu Sans, Liberation Sans, Arial, Helvetica, sans" font-size="10.00">Element</text>
</a>
</g>
</g>
<!-- ElementMixIn&#45;&gt;Element -->
<g id="edge1" class="edge">
<title>ElementMixIn&#45;&gt;Element</title>
<path fill="none" stroke="black" stroke-width="0.5" d="M197.3,-9.5C207.61,-9.5 218.24,-9.5 227.98,-9.5"/>
<polygon fill="black" stroke="black" stroke-width="0.5" points="227.98,-11.25 232.98,-9.5 227.98,-7.75 227.98,-11.25"/>
</g>
</g>
</svg>
