<?xml version="1.0" encoding="UTF-8" standalone="no"?>
<!DOCTYPE svg PUBLIC "-//W3C//DTD SVG 1.1//EN"
 "http://www.w3.org/Graphics/SVG/1.1/DTD/svg11.dtd">
<!-- Generated by graphviz version 3.0.0 (20220413.0242)
 -->
<!-- Title: inheritancec9a5297390 Pages: 1 -->
<svg width="377pt" height="27pt"
 viewBox="0.00 0.00 377.00 27.00" xmlns="http://www.w3.org/2000/svg" xmlns:xlink="http://www.w3.org/1999/xlink">
<g id="graph0" class="graph" transform="scale(1 1) rotate(0) translate(4 23)">
<title>inheritancec9a5297390</title>
<!-- Enum -->
<g id="node1" class="node">
<title>Enum</title>
<g id="a_node1"><a xlink:title="Generic enumeration.">
<polygon fill="white" stroke="#1e90ff" points="54,-19 0,-19 0,0 54,0 54,-19"/>
<text text-anchor="middle" x="27" y="-7" font-family="Vera Sans, DejaVu Sans, Liberation Sans, Arial, Helvetica, sans" font-size="10.00">Enum</text>
</a>
</g>
</g>
<!-- Flag -->
<g id="node2" class="node">
<title>Flag</title>
<g id="a_node2"><a xlink:title="Support for flags">
<polygon fill="white" stroke="#1e90ff" points="144,-19 90,-19 90,0 144,0 144,-19"/>
<text text-anchor="middle" x="117" y="-7" font-family="Vera Sans, DejaVu Sans, Liberation Sans, Arial, Helvetica, sans" font-size="10.00">Flag</text>
</a>
</g>
</g>
<!-- Enum&#45;&gt;Flag -->
<g id="edge1" class="edge">
<title>Enum&#45;&gt;Flag</title>
<path fill="none" stroke="black" stroke-width="0.5" d="M54.4,-9.5C63.97,-9.5 74.87,-9.5 84.82,-9.5"/>
<polygon fill="black" stroke="black" stroke-width="0.5" points="84.92,-11.25 89.92,-9.5 84.92,-7.75 84.92,-11.25"/>
</g>
<!-- IntFlag -->
<g id="node3" class="node">
<title>IntFlag</title>
<g id="a_node3"><a xlink:title="Support for integer&#45;based Flags">
<polygon fill="white" stroke="#1e90ff" points="249,-19 180,-19 180,0 249,0 249,-19"/>
<text text-anchor="middle" x="214.5" y="-7" font-family="Vera Sans, DejaVu Sans, Liberation Sans, Arial, Helvetica, sans" font-size="10.00">IntFlag</text>
</a>
</g>
</g>
<!-- Flag&#45;&gt;IntFlag -->
<g id="edge2" class="edge">
<title>Flag&#45;&gt;IntFlag</title>
<path fill="none" stroke="black" stroke-width="0.5" d="M144.1,-9.5C153.59,-9.5 164.53,-9.5 174.87,-9.5"/>
<polygon fill="black" stroke="black" stroke-width="0.5" points="174.9,-11.25 179.9,-9.5 174.9,-7.75 174.9,-11.25"/>
</g>
<!-- Protocols -->
<g id="node4" class="node">
<title>Protocols</title>
<g id="a_node4"><a xlink:href="../pyTooling/pyTooling.GenericPath.URL.html#pyTooling.GenericPath.URL.Protocols" xlink:title="Enumeration of supported URL schemes." target="_top">
<polygon fill="white" stroke="#1e90ff" points="369,-19 285,-19 285,0 369,0 369,-19"/>
<text text-anchor="middle" x="327" y="-7" font-family="Vera Sans, DejaVu Sans, Liberation Sans, Arial, Helvetica, sans" font-size="10.00">Protocols</text>
</a>
</g>
</g>
<!-- IntFlag&#45;&gt;Protocols -->
<g id="edge3" class="edge">
<title>IntFlag&#45;&gt;Protocols</title>
<path fill="none" stroke="black" stroke-width="0.5" d="M249.25,-9.5C258.77,-9.5 269.29,-9.5 279.41,-9.5"/>
<polygon fill="black" stroke="black" stroke-width="0.5" points="279.66,-11.25 284.66,-9.5 279.66,-7.75 279.66,-11.25"/>
</g>
</g>
</svg>
