<?xml version="1.0" encoding="UTF-8" standalone="no"?>
<!DOCTYPE svg PUBLIC "-//W3C//DTD SVG 1.1//EN"
 "http://www.w3.org/Graphics/SVG/1.1/DTD/svg11.dtd">
<!-- Generated by graphviz version 3.0.0 (20220413.0242)
 -->
<!-- Title: inheritancec148a34832 Pages: 1 -->
<svg width="212pt" height="101pt"
 viewBox="0.00 0.00 212.00 101.00" xmlns="http://www.w3.org/2000/svg" xmlns:xlink="http://www.w3.org/1999/xlink">
<g id="graph0" class="graph" transform="scale(1 1) rotate(0) translate(4 97)">
<title>inheritancec148a34832</title>
<!-- Configuration -->
<g id="node1" class="node">
<title>Configuration</title>
<g id="a_node1"><a xlink:href="../../pyTooling/pyTooling.Configuration.html#pyTooling.Configuration.Configuration" xlink:title="Abstract root node in a configuration." target="_top">
<polygon fill="white" stroke="#1e90ff" points="204,-93 90,-93 90,-74 204,-74 204,-93"/>
<text text-anchor="middle" x="147" y="-81" font-family="Vera Sans, DejaVu Sans, Liberation Sans, Arial, Helvetica, sans" font-size="10.00">Configuration</text>
</a>
</g>
</g>
<!-- Node -->
<g id="node2" class="node">
<title>Node</title>
<g id="a_node2"><a xlink:href="../../pyTooling/pyTooling.Configuration.html#pyTooling.Configuration.Node" xlink:title="Abstract node in a configuration data structure." target="_top">
<polygon fill="white" stroke="#1e90ff" points="54,-56 0,-56 0,-37 54,-37 54,-56"/>
<text text-anchor="middle" x="27" y="-44" font-family="Vera Sans, DejaVu Sans, Liberation Sans, Arial, Helvetica, sans" font-size="10.00">Node</text>
</a>
</g>
</g>
<!-- Node&#45;&gt;Configuration -->
<g id="edge1" class="edge">
<title>Node&#45;&gt;Configuration</title>
<path fill="none" stroke="black" stroke-width="0.5" d="M54.19,-54.71C70.7,-59.89 92.23,-66.64 110.29,-72.3"/>
<polygon fill="black" stroke="black" stroke-width="0.5" points="110,-74.04 115.29,-73.87 111.04,-70.7 110,-74.04"/>
</g>
<!-- Dictionary -->
<g id="node3" class="node">
<title>Dictionary</title>
<g id="a_node3"><a xlink:href="../../pyTooling/pyTooling.Configuration.html#pyTooling.Configuration.Dictionary" xlink:title="Abstract dictionary node in a configuration." target="_top">
<polygon fill="white" stroke="#1e90ff" points="193,-56 101,-56 101,-37 193,-37 193,-56"/>
<text text-anchor="middle" x="147" y="-44" font-family="Vera Sans, DejaVu Sans, Liberation Sans, Arial, Helvetica, sans" font-size="10.00">Dictionary</text>
</a>
</g>
</g>
<!-- Node&#45;&gt;Dictionary -->
<g id="edge2" class="edge">
<title>Node&#45;&gt;Dictionary</title>
<path fill="none" stroke="black" stroke-width="0.5" d="M54.19,-46.5C66.4,-46.5 81.37,-46.5 95.65,-46.5"/>
<polygon fill="black" stroke="black" stroke-width="0.5" points="95.87,-48.25 100.87,-46.5 95.87,-44.75 95.87,-48.25"/>
</g>
<!-- Sequence -->
<g id="node4" class="node">
<title>Sequence</title>
<g id="a_node4"><a xlink:href="../../pyTooling/pyTooling.Configuration.html#pyTooling.Configuration.Sequence" xlink:title="Abstract sequence node in a configuration." target="_top">
<polygon fill="white" stroke="#1e90ff" points="185.5,-19 108.5,-19 108.5,0 185.5,0 185.5,-19"/>
<text text-anchor="middle" x="147" y="-7" font-family="Vera Sans, DejaVu Sans, Liberation Sans, Arial, Helvetica, sans" font-size="10.00">Sequence</text>
</a>
</g>
</g>
<!-- Node&#45;&gt;Sequence -->
<g id="edge3" class="edge">
<title>Node&#45;&gt;Sequence</title>
<path fill="none" stroke="black" stroke-width="0.5" d="M54.19,-38.29C70.7,-33.11 92.23,-26.36 110.29,-20.7"/>
<polygon fill="black" stroke="black" stroke-width="0.5" points="111.04,-22.3 115.29,-19.13 110,-18.96 111.04,-22.3"/>
</g>
</g>
</svg>
